<svg width="242" height="52" viewBox="0 0 242 52" fill="none" xmlns="http://www.w3.org/2000/svg">
<g clip-path="url(#clip0_347_1113)">
<path d="M173.602 31.8281C173.501 31.3895 173.378 31.0012 173.234 30.6635C173.093 30.3257 172.881 30.0029 172.607 29.698C172.329 29.3904 172.08 29.1359 171.855 28.9291C171.628 28.7275 171.313 28.5207 170.905 28.3165C170.494 28.1123 170.159 27.9535 169.892 27.8401C169.627 27.7293 169.249 27.5956 168.757 27.4419C168.266 27.288 167.892 27.1821 167.638 27.1216C167.381 27.0587 166.998 26.9679 166.486 26.8445C165.833 26.6805 165.336 26.552 164.999 26.4612C164.661 26.368 164.247 26.2293 163.756 26.0453C163.267 25.8613 162.896 25.6747 162.652 25.4806C162.407 25.2866 162.193 25.0344 162.009 24.727C161.825 24.4218 161.732 24.0841 161.732 23.716C161.732 22.8564 162.105 22.1884 162.851 21.7069C163.597 21.2255 164.535 20.986 165.659 20.986C166.824 20.986 167.779 21.2758 168.528 21.8581C169.274 22.4431 169.647 23.2447 169.647 24.2681H173.143C173.143 22.2438 172.488 20.6432 171.18 19.4684C169.871 18.2912 168.051 17.7039 165.72 17.7039C163.428 17.7039 161.603 18.2458 160.244 19.3298C158.883 20.4137 158.205 21.9162 158.205 23.8395C158.205 24.4723 158.286 25.0446 158.45 25.5562C158.613 26.068 158.802 26.5015 159.017 26.8596C159.231 27.2175 159.554 27.5553 159.982 27.8703C160.413 28.1906 160.786 28.4401 161.104 28.6241C161.419 28.8081 161.87 28.9971 162.453 29.1913C163.035 29.3855 163.491 29.5292 163.819 29.6199C164.144 29.7131 164.625 29.8316 165.258 29.9727C165.833 30.1164 166.262 30.2223 166.549 30.2954C166.834 30.3686 167.207 30.4745 167.668 30.6182C168.127 30.7618 168.475 30.908 168.712 31.0617C168.946 31.2156 169.191 31.3944 169.448 31.5986C169.702 31.8028 169.886 32.0499 170 32.3348C170.111 32.6222 170.169 32.9398 170.169 33.2851C170.169 34.2279 169.758 34.9893 168.941 35.5716C168.122 36.1539 167.121 36.4462 165.934 36.4462C164.625 36.4462 163.547 36.1134 162.7 35.4479C161.85 34.7851 161.424 33.88 161.424 32.733H157.867C157.867 34.165 158.205 35.4177 158.878 36.4916C159.554 37.5654 160.499 38.3898 161.716 38.962C162.934 39.5343 164.351 39.8191 165.967 39.8191C168.215 39.8191 170.076 39.2419 171.548 38.0873C173.02 36.9328 173.756 35.3118 173.756 33.2246C173.756 32.733 173.706 32.2692 173.602 31.8281Z" fill="#1F2D28"/>
<path d="M177.53 39.4838H180.935V16.9678H177.53V39.4838Z" fill="#1F2D28"/>
<path d="M188.082 29.6046C188.369 28.3593 188.957 27.3761 189.847 26.6602C190.736 25.9444 191.815 25.5863 193.084 25.5863C193.92 25.5863 194.681 25.7451 195.368 26.0627C196.052 26.3779 196.631 26.8392 197.101 27.4417C197.57 28.0467 197.909 28.7652 198.113 29.6046H188.082ZM201.518 31.2306C201.518 29.6349 201.17 28.1778 200.474 26.8594C199.779 25.5409 198.788 24.4873 197.5 23.7008C196.211 22.9118 194.74 22.5186 193.084 22.5186C190.649 22.5186 188.619 23.3478 186.993 25.004C185.367 26.6602 184.555 28.7274 184.555 31.2003C184.555 33.6757 185.367 35.7403 186.993 37.3964C188.619 39.0526 190.649 39.8821 193.084 39.8821C194.923 39.8821 196.559 39.3854 197.988 38.3922C199.421 37.4016 200.465 36.0276 201.119 34.268H197.531C197.243 34.7798 196.88 35.2133 196.442 35.5714C196.003 35.9293 195.496 36.2067 194.923 36.3982C194.349 36.5948 193.736 36.6907 193.084 36.6907C191.732 36.6907 190.603 36.3023 189.692 35.5261C188.783 34.7496 188.226 33.6959 188.021 32.3674H201.457C201.497 31.9161 201.518 31.538 201.518 31.2306Z" fill="#1F2D28"/>
<path d="M207.437 29.6046C207.725 28.3593 208.311 27.3761 209.201 26.6602C210.092 25.9444 211.17 25.5863 212.438 25.5863C213.276 25.5863 214.04 25.7451 214.722 26.0627C215.408 26.3779 215.985 26.8392 216.456 27.4417C216.928 28.0467 217.265 28.7652 217.469 29.6046H207.437ZM220.872 31.2306C220.872 29.6349 220.524 28.1778 219.832 26.8594C219.137 25.5409 218.142 24.4873 216.855 23.7008C215.567 22.9118 214.094 22.5186 212.438 22.5186C210.003 22.5186 207.974 23.3478 206.35 25.004C204.724 26.6602 203.91 28.7274 203.91 31.2003C203.91 33.6757 204.724 35.7403 206.35 37.3964C207.974 39.0526 210.003 39.8821 212.438 39.8821C214.278 39.8821 215.915 39.3854 217.346 38.3922C218.777 37.4016 219.819 36.0276 220.475 34.268H216.887C216.599 34.7798 216.236 35.2133 215.798 35.5714C215.357 35.9293 214.851 36.2067 214.278 36.3982C213.707 36.5948 213.09 36.6907 212.438 36.6907C211.09 36.6907 209.958 36.3023 209.048 35.5261C208.137 34.7496 207.581 33.6959 207.377 32.3674H220.812C220.853 31.9161 220.872 31.538 220.872 31.2306Z" fill="#1F2D28"/>
<path d="M237.009 35.0799C235.986 36.1133 234.693 36.6302 233.129 36.6302C231.564 36.6302 230.271 36.1133 229.248 35.0799C228.227 34.0487 227.714 32.7555 227.714 31.2003C227.714 30.1767 227.943 29.2516 228.405 28.4249C228.864 27.5954 229.514 26.9475 230.352 26.4762C231.191 26.0073 232.121 25.7704 233.144 25.7704C234.697 25.7704 235.986 26.2871 237.009 27.3207C238.032 28.3517 238.544 29.6473 238.544 31.2003C238.544 32.7555 238.032 34.0487 237.009 35.0799ZM240.873 26.7536C240.138 25.4226 239.117 24.3865 237.808 23.6378C236.496 22.8916 235.025 22.5186 233.388 22.5186C231.017 22.5186 229.032 23.3277 227.437 24.9435L226.794 22.9167H224.493V45.4329H227.898V37.888C229.431 39.2166 231.261 39.8821 233.388 39.8821C235.865 39.8821 237.914 39.0577 239.54 37.4116C241.166 35.7654 241.977 33.6959 241.977 31.2003C241.977 29.5642 241.609 28.0819 240.873 26.7536Z" fill="#1F2D28"/>
<path d="M43.9735 25.5863C43.9735 39.6879 32.5416 51.1224 18.4375 51.1224C14.4974 51.1224 10.7641 50.2276 7.43152 48.6343C12.3371 46.9554 16.5695 43.8221 19.6147 39.7535C22.7304 40.855 26.2167 39.3929 27.5855 36.3226C27.7092 36.0428 27.8124 35.7605 27.8956 35.4731C26.3831 37.9007 23.4213 39.0275 20.6761 38.2208C22.7077 35.0496 24.059 31.3994 24.5178 27.4769H20.56C21.6819 25.0242 22.3069 22.2966 22.3069 19.4228C22.3069 14.7896 20.6785 10.5319 17.9636 7.19686C15.8158 4.85248 13.232 2.91648 10.3431 1.50733C10.2775 1.48213 10.212 1.4544 10.149 1.42667C10.154 1.42415 10.1591 1.42415 10.1666 1.42163C12.7606 0.53177 15.5436 0.050293 18.4375 0.050293C32.5416 0.050293 43.9735 11.4848 43.9735 25.5863Z" fill="#1F2D28"/>
<path d="M75.8644 17.2651C75.093 16.3349 74.062 15.6442 72.774 15.1879C71.4857 14.7342 70.069 14.5073 68.5263 14.5073C66.4542 14.5073 64.6543 14.835 63.1216 15.4904C61.589 16.1459 60.4168 17.066 59.6025 18.2482C58.7882 19.4305 58.3825 20.7842 58.3825 22.3042C58.3825 23.7638 58.748 24.984 59.4764 25.9671C60.2051 26.9502 61.0823 27.7265 62.1082 28.2964C63.1318 28.866 64.4577 29.4686 66.0861 30.1038C67.3541 30.6105 68.3372 31.0389 69.033 31.3868C69.7312 31.7347 70.311 32.1684 70.7774 32.6875C71.2412 33.2044 71.4732 33.8219 71.4732 34.5403C71.4732 35.7025 70.9665 36.6076 69.9531 37.2504C68.9371 37.8956 67.5331 38.2184 65.7357 38.2184C64.0039 38.2184 62.6553 37.9864 61.6949 37.52C60.7345 37.0562 60.2529 36.3478 60.2529 35.3976C60.2529 35.1656 60.268 34.9438 60.3007 34.7321C60.331 34.5203 60.3488 34.3715 60.3488 34.2883C60.4117 33.9707 60.442 33.6001 60.442 33.1791C60.442 32.7129 60.2629 32.3321 59.905 32.0372C59.5445 31.7422 59.0807 31.5936 58.5084 31.5936C57.727 31.5936 57.1347 31.8986 56.7339 32.5136C56.3331 33.1262 56.1313 34.0136 56.1313 35.1756C56.1313 37.3738 56.9759 39.0049 58.6672 40.0736C60.3588 41.14 62.61 41.6744 65.4206 41.6744C68.5892 41.6744 71.1202 41.0038 73.0108 39.6602C74.9015 38.3191 75.8492 36.4007 75.8492 33.9077C75.8492 32.5767 75.504 31.4548 74.8183 30.5473C74.1326 29.6398 73.3007 28.919 72.3302 28.392C71.3571 27.8627 70.069 27.2728 68.4633 26.6175C67.1323 26.0881 66.0963 25.6344 65.3551 25.2536C64.6165 24.873 63.9988 24.3966 63.5023 23.8269C63.0057 23.2571 62.7561 22.5689 62.7561 21.7673C62.7561 20.5624 63.2376 19.6271 64.1981 18.9616C65.161 18.2961 66.55 17.9634 68.3675 17.9634C69.6556 17.9634 70.7345 18.1953 71.6018 18.6591C72.4663 19.1255 72.8999 19.801 72.8999 20.6885C72.8999 20.8573 72.8696 21.2581 72.8067 21.8934C72.7411 22.2312 72.7108 22.6018 72.7108 23.0026C72.7108 23.4688 72.8949 23.8697 73.2655 24.2075C73.6334 24.5454 74.0947 24.7142 74.6443 24.7142C75.4257 24.7142 76.0183 24.3763 76.4191 23.7008C76.8199 23.0253 77.0214 22.0195 77.0214 20.6885C77.0214 19.3373 76.6357 18.1953 75.8644 17.2651Z" fill="#1F2D28"/>
<path d="M84.6444 21.2758C84.9923 19.8691 85.3629 18.7701 85.7537 17.9786C86.1444 17.187 86.4999 16.7888 86.8175 16.7888C87.2813 16.7888 87.5133 17.4139 87.5133 18.6592C87.5133 19.7584 87.2005 20.9784 86.578 22.322C85.9554 23.6631 85.0201 24.8731 83.7723 25.952C84.0067 24.2403 84.2965 22.6799 84.6444 21.2758ZM93.0137 34.7321C92.8548 34.4774 92.638 34.3513 92.3633 34.3513C92.0456 34.3513 91.7607 34.5001 91.5087 34.7951C91.0777 35.2917 90.6744 35.7328 90.2963 36.116C89.8374 36.5823 89.4164 36.9655 89.0358 37.268C88.3376 37.8176 87.5333 38.0923 86.6258 38.0923C85.5065 38.0923 84.6873 37.6486 84.1706 36.7613C83.6513 35.8714 83.3917 34.3313 83.3917 32.1331C83.3917 31.5407 83.4144 30.7164 83.4571 29.6601H87.3242C89.7113 29.6601 90.9062 28.9317 90.9062 27.4721C90.9062 27.0713 90.8306 26.7964 90.6844 26.6478C90.5356 26.5015 90.2912 26.4258 89.9533 26.4258H86.404C89.1517 23.9958 90.5256 21.1448 90.5256 17.8677C90.5256 16.6854 90.2709 15.7023 89.7642 14.9208C89.2575 14.1368 88.5593 13.7461 87.6721 13.7461C86.467 13.7461 85.3428 14.3183 84.2965 15.4578C83.2505 16.5997 82.3581 18.1323 81.617 20.0558C80.8783 21.9791 80.3289 24.1017 79.9683 26.4258H78.1634C77.2105 26.4258 76.7367 27.0184 76.7367 28.2006C76.7367 28.7097 76.8475 29.0778 77.0694 29.3098C77.2912 29.5442 77.7198 29.6601 78.3524 29.6601H79.5878C79.5246 30.6105 79.4944 31.5508 79.4944 32.4809C79.4944 38.5461 81.6497 41.5786 85.9603 41.5786C87.3544 41.5786 88.592 41.2181 89.6686 40.4996C90.286 40.0888 90.8759 39.6124 91.4355 39.0679C91.8566 38.6646 92.2599 38.2209 92.6482 37.742C93.049 37.278 93.2505 36.6227 93.2505 35.7782C93.2505 35.3345 93.1725 34.9841 93.0137 34.7321Z" fill="#1F2D28"/>
<path d="M94.0446 34.4144C94.0446 33.1261 94.3119 32.0271 94.8513 31.1171C95.3907 30.2096 96.0513 29.7559 96.8327 29.7559C97.2133 29.7559 97.5133 29.8769 97.7351 30.1189C97.9571 30.3634 98.0679 30.6834 98.0679 31.0869C98.0679 31.8683 97.71 32.554 96.9915 33.1464C96.2731 33.7387 95.29 34.1824 94.0446 34.4773V34.4144ZM105.472 34.732C105.313 34.4773 105.096 34.3512 104.821 34.3512C104.504 34.3512 104.219 34.5 103.964 34.795C103.83 34.9589 103.692 35.1151 103.548 35.269C102.757 36.1311 101.842 36.8444 100.811 37.4091C99.5955 38.0746 98.514 38.4074 97.5612 38.4074C96.0816 38.4074 95.0782 37.9234 94.5513 36.9503C97.0445 36.3377 98.8141 35.5083 99.8602 34.4622C100.906 33.4161 101.428 32.1632 101.428 30.7061C101.428 29.4583 101.06 28.4703 100.319 27.7416C99.5804 27.0132 98.5972 26.6477 97.3721 26.6477C95.9984 26.6477 94.7682 27.0183 93.6792 27.7567C92.5902 28.4979 91.7407 29.4961 91.1281 30.7541C90.5129 32.012 90.208 33.3681 90.208 34.8252C90.208 35.2765 90.2358 35.7076 90.2963 36.116C90.4524 37.2603 90.8332 38.2435 91.4355 39.0678C91.6197 39.3173 91.8212 39.5518 92.0456 39.7711C93.2708 40.976 94.995 41.5785 97.2133 41.5785C98.8392 41.5785 100.367 41.1777 101.794 40.3736C102.85 39.7811 103.727 39.1459 104.431 38.4703C104.677 38.2335 104.902 37.9888 105.106 37.7419C105.507 37.2779 105.709 36.6226 105.709 35.7781C105.709 35.3344 105.63 34.984 105.472 34.732Z" fill="#1F2D28"/>
<path d="M107.99 23.9226C108.456 21.3238 108.993 19.1458 109.608 17.3912C110.221 15.6392 110.77 14.762 111.254 14.762C111.847 14.762 112.144 15.5636 112.144 17.1694C112.144 19.2214 111.698 21.4875 110.811 23.9707C109.923 26.4536 108.731 28.9317 107.229 31.4019C107.271 29.0148 107.526 26.5217 107.99 23.9226ZM115.805 34.7321C115.646 34.4774 115.429 34.3513 115.154 34.3513C114.837 34.3513 114.552 34.5001 114.3 34.7951C114.158 34.9639 114.02 35.1253 113.884 35.2791C113.054 36.2295 112.359 36.9201 111.794 37.3461C111.139 37.8427 110.377 38.0923 109.513 38.0923C108.963 38.0923 108.519 37.9057 108.182 37.5378C107.844 37.1672 107.599 36.5496 107.45 35.6823C109.84 32.428 111.731 29.1408 113.125 25.8235C114.521 22.506 115.217 19.5893 115.217 17.0761C115.217 15.3216 114.927 13.973 114.347 13.0327C113.765 12.0924 112.969 11.6235 111.953 11.6235C110.155 11.6235 108.608 12.8058 107.309 15.1729C106.008 17.5399 105.028 20.3709 104.36 23.6682C103.694 26.9654 103.362 29.9021 103.362 32.4809C103.362 33.4792 103.422 34.4094 103.548 35.269C103.722 36.4715 104.017 37.5378 104.431 38.4704C104.519 38.6671 104.612 38.8586 104.71 39.0427C105.608 40.7341 106.987 41.5786 108.847 41.5786C110.198 41.5786 111.408 41.2181 112.477 40.4996C113.291 39.9502 114.06 39.2872 114.781 38.5031C115.005 38.2611 115.225 38.0067 115.439 37.742C115.84 37.278 116.041 36.6227 116.041 35.7782C116.041 35.3344 115.963 34.9841 115.805 34.7321Z" fill="#1F2D28"/>
<path d="M118.323 23.9226C118.789 21.3238 119.329 19.1458 119.941 17.3912C120.554 15.6392 121.103 14.762 121.59 14.762C122.18 14.762 122.477 15.5636 122.477 17.1694C122.477 19.2214 122.033 21.4875 121.146 23.9707C120.259 26.4536 119.064 28.9317 117.564 31.4019C117.604 29.0148 117.859 26.5217 118.323 23.9226ZM126.137 34.7321C125.979 34.4774 125.762 34.3513 125.487 34.3513C125.172 34.3513 124.884 34.5001 124.632 34.7951C124.058 35.4757 123.541 36.0453 123.082 36.4991C122.729 36.8469 122.412 37.1294 122.127 37.3461C121.471 37.8427 120.713 38.0923 119.845 38.0923C119.296 38.0923 118.852 37.9057 118.514 37.5378C118.177 37.1672 117.932 36.5496 117.786 35.6823C120.173 32.428 122.064 29.1408 123.46 25.8235C124.854 22.506 125.553 19.5893 125.553 17.0761C125.553 15.3216 125.26 13.973 124.68 13.0327C124.098 12.0924 123.301 11.6235 122.286 11.6235C120.491 11.6235 118.943 12.8058 117.642 15.1729C116.344 17.5399 115.361 20.3709 114.695 23.6682C114.03 26.9654 113.697 29.9021 113.697 32.4809C113.697 33.4843 113.76 34.4169 113.884 35.2791C114.06 36.4915 114.357 37.5654 114.781 38.5031C114.864 38.6897 114.95 38.8688 115.043 39.0427C115.941 40.7341 117.32 41.5786 119.18 41.5786C120.531 41.5786 121.741 41.2181 122.81 40.4996C123.186 40.2476 123.549 39.9703 123.904 39.6678C124.559 39.1108 125.185 38.4704 125.774 37.742C126.175 37.278 126.374 36.6227 126.374 35.7782C126.374 35.3344 126.296 34.9841 126.137 34.7321Z" fill="#1F2D28"/>
<path d="M130.781 35.3648C130.592 36.2749 130.284 37.0034 129.863 37.553C129.44 38.1024 128.996 38.3773 128.53 38.3773C128.066 38.3773 127.7 38.2185 127.438 37.9009C127.173 37.5832 127.04 37.0992 127.04 36.4438C127.04 35.2589 127.262 34.1397 127.708 33.0835C128.152 32.0273 128.746 31.1752 129.498 30.5323C130.246 29.8871 131.066 29.5543 131.956 29.5316L130.781 35.3648ZM140.718 34.7322C140.562 34.4775 140.345 34.3514 140.07 34.3514C139.753 34.3514 139.468 34.5002 139.213 34.7951C138.946 35.1152 138.694 35.4102 138.459 35.6799C137.832 36.3933 137.315 36.9404 136.899 37.3159C136.329 37.8328 135.843 38.0924 135.442 38.0924C135.187 38.0924 134.981 37.9965 134.824 37.8075C134.665 37.6159 134.585 37.3613 134.585 37.0463C134.585 36.0934 134.829 34.4043 135.313 31.9743C135.631 30.3055 135.79 29.2467 135.79 28.8032C135.79 28.0645 135.273 27.6939 134.237 27.6939C133.75 27.6939 133.287 27.7369 132.843 27.8201C132.737 27.3561 132.603 27.0335 132.445 26.8545C132.288 26.6755 131.976 26.5847 131.509 26.5847C130.052 26.5847 128.673 27.0436 127.373 27.9637C126.074 28.8837 125.033 30.0988 124.252 31.6089C123.47 33.1214 123.08 34.722 123.08 36.411C123.08 36.4413 123.08 36.4715 123.082 36.4992C123.092 37.7545 123.367 38.8108 123.904 39.6678C124.01 39.8369 124.126 39.9981 124.252 40.1518C125.033 41.1023 126.08 41.5787 127.39 41.5787C129.059 41.5787 130.443 40.6914 131.542 38.9167C131.837 39.741 132.276 40.3889 132.858 40.8654C133.438 41.3418 134.078 41.5787 134.776 41.5787C135.684 41.5787 136.624 41.2081 137.597 40.4695C137.978 40.1796 138.351 39.862 138.716 39.5192C139.281 38.9899 139.828 38.3973 140.355 37.742C140.756 37.2781 140.957 36.6228 140.957 35.7783C140.957 35.3345 140.877 34.9842 140.718 34.7322Z" fill="#1F2D28"/>
<path d="M155.523 31.9566C155.364 31.7146 155.147 31.5936 154.872 31.5936C154.575 31.5936 154.29 31.7297 154.015 32.0044C153.085 32.9346 152.326 33.401 151.734 33.401C151.205 33.401 150.942 33.0305 150.942 32.2918C150.942 32.08 151.026 31.5507 151.194 30.7061C151.386 29.65 151.479 28.9845 151.479 28.7096C151.479 27.3359 150.794 26.6477 149.42 26.6477C148.721 26.6477 147.955 26.8922 147.121 27.3762C146.286 27.8626 145.437 28.6769 144.57 29.8188C143.703 30.9583 142.921 32.4379 142.225 34.2556C142.308 33.3254 142.414 32.5438 142.54 31.9112C142.669 31.276 142.838 30.5373 143.05 29.6903C143.365 28.5081 143.524 27.7467 143.524 27.4089C143.524 27.1139 143.44 26.9124 143.272 26.8065C143.1 26.7006 142.805 26.6477 142.382 26.6477C141.6 26.6477 140.993 26.7914 140.559 27.0761C140.128 27.361 139.815 27.8097 139.624 28.4222C138.898 30.7239 138.507 33.1439 138.459 35.6798C138.454 35.8713 138.452 36.0604 138.452 36.2521C138.452 37.6107 138.54 38.6997 138.716 39.5191C138.779 39.8189 138.855 40.0836 138.943 40.3105C139.271 41.155 139.836 41.5785 140.64 41.5785C141.295 41.5785 141.774 41.4046 142.082 41.0543C142.387 40.7064 142.656 40.0358 142.891 39.0426C143.206 37.7544 143.619 36.5268 144.126 35.3646C144.633 34.2026 145.144 33.2673 145.664 32.5589C146.18 31.8532 146.599 31.4977 146.917 31.4977C147.148 31.4977 147.265 31.6666 147.265 32.0044C147.265 32.1532 147.244 32.4379 147.201 32.8614C147.138 33.1791 147.106 33.4942 147.106 33.8118C147.106 34.785 147.396 35.5563 147.978 36.126C148.558 36.6956 149.41 36.983 150.529 36.983C151.416 36.983 152.256 36.7663 153.05 36.3326C153.841 35.8991 154.535 35.3773 155.127 34.7623C155.548 34.3185 155.76 33.706 155.76 32.9246C155.76 32.5238 155.682 32.201 155.523 31.9566Z" fill="#1F2D28"/>
<path d="M0.148743 12.9735C3.48985 15.083 7.90483 14.082 10.012 10.7444C7.90483 14.082 8.89981 18.4982 12.2374 20.6054C8.89981 18.4982 4.4871 19.4954 2.38018 22.8331C4.4871 19.4954 3.48985 15.083 0.148743 12.9735Z" fill="#1F2D28"/>
</g>
<defs>
<clipPath id="clip0_347_1113">
<rect width="242" height="51.2359" fill="white"/>
</clipPath>
</defs>
</svg>
